<svg data-v-423bf9ae="" xmlns="http://www.w3.org/2000/svg" viewBox="0 0 176.83947841984764 60" class="font"><!----><!----><!----><g data-v-423bf9ae="" id="39d7b47f-17fd-48a2-a484-92c11865951b" fill="black" transform="matrix(5.016722792052415,0,0,5.016722792052415,0.30100049530094,-12.441472143139222)"><path d="M6.04 8.61L6.04 8.61L6.04 8.61Q7.55 7.44 8.35 7.44L8.35 7.44L8.35 7.44Q8.88 7.44 9.19 7.89L9.19 7.89L9.19 7.89Q9.45 8.26 9.45 8.83L9.45 8.83L9.45 12.09L9.45 12.09Q9.45 12.71 9.53 12.90L9.53 12.90L9.53 12.90Q9.69 13.26 10.23 13.26L10.23 13.26L10.23 13.26Q10.50 13.26 10.75 13.16L10.75 13.16L10.75 13.16Q10.14 13.69 9.91 13.84L9.91 13.84L9.91 13.84Q9.37 14.18 8.97 14.18L8.97 14.18L8.97 14.18Q8.57 14.18 8.40 14.04L8.40 14.04L8.40 14.04Q8.24 13.90 8.17 13.69L8.17 13.69L8.17 13.69Q8.09 13.45 8.09 12.70L8.09 12.70L8.09 10.12L8.09 10.12Q8.09 9.37 7.95 9.05L7.95 9.05L7.95 9.05Q7.81 8.72 7.61 8.56L7.61 8.56L7.61 8.56Q7.40 8.39 7.13 8.39L7.13 8.39L7.13 8.39Q6.85 8.39 6.70 8.48L6.70 8.48L6.70 8.48Q6.55 8.56 6.44 8.69L6.44 8.69L6.44 8.69Q6.03 9.17 6.03 10.26L6.03 10.26L6.03 12.20L6.03 12.20Q6.03 12.71 6.14 12.90L6.14 12.90L6.14 12.90Q6.34 13.26 6.82 13.26L6.82 13.26L6.82 13.26Q7.10 13.26 7.34 13.16L7.34 13.16L7.34 13.16Q6.73 13.69 6.50 13.84L6.50 13.84L6.50 13.84Q5.97 14.18 5.57 14.18L5.57 14.18L5.57 14.18Q5.17 14.18 5.00 14.04L5.00 14.04L5.00 14.04Q4.83 13.90 4.76 13.69L4.76 13.69L4.76 13.69Q4.69 13.45 4.69 12.70L4.69 12.70L4.69 10.12L4.69 10.12Q4.69 9.37 4.55 9.05L4.55 9.05L4.55 9.05Q4.41 8.72 4.20 8.56L4.20 8.56L4.20 8.56Q4.00 8.39 3.71 8.39L3.71 8.39L3.71 8.39Q3.42 8.39 3.27 8.50L3.27 8.50L3.27 8.50Q3.11 8.61 3.00 8.79L3.00 8.79L3.00 8.79Q2.88 8.98 2.82 9.20L2.82 9.20L2.82 9.20Q2.75 9.43 2.71 9.67L2.71 9.67L2.71 9.67Q2.65 10.08 2.65 10.53L2.65 10.53L2.65 12.64L2.65 12.64Q2.65 13.08 2.91 13.23L2.91 13.23L2.91 13.23Q3.01 13.30 3.15 13.30L3.15 13.30L3.15 13.30Q3.29 13.30 3.45 13.23L3.45 13.23L3.45 13.23Q2.67 13.90 2.34 14.06L2.34 14.06L2.34 14.06Q2.02 14.22 1.83 14.22L1.83 14.22L1.83 14.22Q1.31 14.22 1.31 13.62L1.31 13.62L1.31 9.68L1.31 9.68Q1.31 9.44 1.32 9.20L1.32 9.20L1.32 9.20Q1.33 8.96 1.27 8.76L1.27 8.76L1.27 8.76Q1.14 8.33 0.53 8.33L0.53 8.33L0.53 8.33Q0.23 8.33-0.06 8.44L-0.06 8.44L-0.06 8.44Q0.12 8.38 0.40 8.12L0.40 8.12L0.40 8.12Q0.94 7.63 1.16 7.55L1.16 7.55L1.16 7.55Q1.59 7.39 1.89 7.39L1.89 7.39L1.89 7.39Q2.19 7.39 2.34 7.50L2.34 7.50L2.34 7.50Q2.50 7.61 2.56 7.78L2.56 7.78L2.56 7.78Q2.65 7.99 2.65 8.60L2.65 8.60L2.65 8.60Q3.53 7.90 4.37 7.57L4.37 7.57L4.37 7.57Q4.68 7.44 4.94 7.44L4.94 7.44L4.94 7.44Q5.19 7.44 5.38 7.54L5.38 7.54L5.38 7.54Q5.58 7.64 5.71 7.80L5.71 7.80L5.71 7.80Q6.00 8.13 6.04 8.61ZM17.00 8.18L17.00 8.18L17.00 8.18Q17.35 8.57 17.54 9.08L17.54 9.08L17.54 9.08Q17.74 9.59 17.74 10.10L17.74 10.10L17.74 10.10Q17.74 10.62 17.59 11.10L17.59 11.10L17.59 11.10Q17.44 11.59 17.17 12.04L17.17 12.04L17.17 12.04Q16.90 12.50 16.53 12.89L16.53 12.89L16.53 12.89Q16.17 13.28 15.73 13.58L15.73 13.58L15.73 13.58Q14.80 14.20 13.85 14.20L13.85 14.20L13.85 14.20Q12.74 14.20 11.96 13.33L11.96 13.33L11.96 13.33Q11.20 12.50 11.20 11.38L11.20 11.38L11.20 11.38Q11.20 10.42 11.78 9.45L11.78 9.45L11.78 9.45Q12.65 7.99 14.14 7.48L14.14 7.48L14.14 7.48Q14.62 7.31 15.16 7.31L15.16 7.31L15.16 7.31Q15.69 7.31 16.17 7.54L16.17 7.54L16.17 7.54Q16.65 7.78 17.00 8.18ZM13.77 8.22L13.77 8.22L13.77 8.22Q13.08 8.22 12.77 8.89L12.77 8.89L12.77 8.89Q12.52 9.41 12.52 10.06L12.52 10.06L12.52 10.06Q12.52 10.72 12.70 11.28L12.70 11.28L12.70 11.28Q12.87 11.85 13.21 12.29L13.21 12.29L13.21 12.29Q13.97 13.29 15.17 13.29L15.17 13.29L15.17 13.29Q15.87 13.29 16.18 12.59L16.18 12.59L16.18 12.59Q16.41 12.07 16.41 11.40L16.41 11.40L16.41 11.40Q16.41 10.08 15.67 9.15L15.67 9.15L15.67 9.15Q14.94 8.22 13.77 8.22ZM25.18 8.11L25.18 8.11L25.18 8.11Q25.18 9.62 23.02 12.82L23.02 12.82L23.02 12.82Q22.90 13.00 22.78 13.19L22.78 13.19L22.78 13.19Q22.66 13.38 22.57 13.49L22.57 13.49L22.57 13.49Q22.48 13.60 22.37 13.68L22.37 13.68L22.37 13.68Q22.26 13.75 22.11 13.85L22.11 13.85L22.11 13.85Q21.97 13.94 21.82 14.03L21.82 14.03L21.82 14.03Q21.66 14.12 21.53 14.21L21.53 14.21L21.53 14.21Q21.22 14.42 21.21 14.44L21.21 14.44L21.21 14.44Q20.93 13.30 20.63 12.16L20.63 12.16L20.63 12.16Q20.33 11.03 20.07 10.39L20.07 10.39L20.07 10.39Q19.81 9.74 19.70 9.48L19.70 9.48L19.70 9.48Q19.60 9.22 19.45 8.98L19.45 8.98L19.45 8.98Q19.10 8.41 18.66 8.41L18.66 8.41L18.66 8.41Q18.42 8.41 18.11 8.59L18.11 8.59L18.11 8.59Q19.07 7.46 20.04 7.46L20.04 7.46L20.04 7.46Q20.76 7.46 21.58 10.01L21.58 10.01L21.58 10.01Q21.92 11.07 22.10 11.78L22.10 11.78L22.10 11.78Q22.29 12.49 22.35 12.76L22.35 12.76L22.35 12.76Q23.32 11.23 23.71 9.94L23.71 9.94L23.71 9.94Q23.86 9.44 23.86 9.02L23.86 9.02L23.86 9.02Q23.86 8.39 23.38 8.39L23.38 8.39L23.38 8.39Q23.21 8.39 22.98 8.48L22.98 8.48L22.98 8.48Q23.21 8.39 23.39 8.22L23.39 8.22L23.39 8.22Q23.56 8.05 23.74 7.89L23.74 7.89L23.74 7.89Q24.19 7.47 24.69 7.47L24.69 7.47L24.69 7.47Q25.18 7.47 25.18 8.11ZM26.76 3.41L28.08 2.48L28.12 3.26L28.12 3.62L28.12 3.62Q28.12 3.94 28.04 4.02L28.04 4.02L28.04 4.02Q27.96 4.09 27.86 4.16L27.86 4.16L27.86 4.16Q27.48 4.43 26.76 4.89L26.76 4.89L26.76 4.89Q26.79 4.21 26.79 4.19L26.79 4.19L26.79 4.19Q26.79 4.16 26.76 3.41L26.76 3.41ZM29.51 13.24L29.51 13.24L29.51 13.24Q29.31 13.41 29.11 13.58L29.11 13.58L29.11 13.58Q28.92 13.75 28.70 13.89L28.70 13.89L28.70 13.89Q28.21 14.21 27.76 14.21L27.76 14.21L27.76 14.21Q27.34 14.21 27.17 14.08L27.17 14.08L27.17 14.08Q26.82 13.82 26.82 13.13L26.82 13.13L26.82 9.88L26.82 9.88Q26.82 9.15 26.55 8.93L26.55 8.93L26.55 8.93Q26.43 8.83 26.28 8.83L26.28 8.83L26.28 8.83Q26.14 8.83 26.04 8.84L26.04 8.84L26.04 8.84Q25.94 8.86 25.84 8.88L25.84 8.88L25.84 8.88Q25.74 8.90 25.63 8.92L25.63 8.92L25.63 8.92Q25.97 8.65 26.27 8.44L26.27 8.44L26.27 8.44Q26.56 8.23 26.78 8.09L26.78 8.09L26.78 8.09Q26.99 7.94 27.36 7.68L27.36 7.68L27.36 7.68Q27.74 7.42 28.14 7.21L28.14 7.21L28.14 12.03L28.14 12.03Q28.14 12.73 28.23 12.91L28.23 12.91L28.23 12.91Q28.42 13.29 29.08 13.29L29.08 13.29L29.08 13.29Q29.26 13.29 29.51 13.24ZM35.19 12.82L35.19 12.82L35.19 12.82Q34.25 13.86 32.87 14.12L32.87 14.12L32.87 14.12Q32.55 14.18 32.07 14.18L32.07 14.18L32.07 14.18Q31.60 14.18 31.19 13.91L31.19 13.91L31.19 13.91Q30.77 13.65 30.50 13.23L30.50 13.23L30.50 13.23Q30.00 12.43 30.00 11.27L30.00 11.27L30.00 11.27Q30.00 10.50 30.58 9.57L30.58 9.57L30.58 9.57Q31.16 8.65 31.99 8.04L31.99 8.04L31.99 8.04Q32.87 7.38 33.67 7.38L33.67 7.38L33.67 7.38Q34.08 7.38 34.36 7.68L34.36 7.68L34.36 7.68Q34.62 7.98 34.62 8.35L34.62 8.35L34.62 8.35Q34.62 8.73 34.45 9.05L34.45 9.05L34.45 9.05Q34.29 9.37 34.03 9.67L34.03 9.67L34.03 9.67Q33.76 9.97 33.42 10.24L33.42 10.24L33.42 10.24Q33.09 10.52 32.73 10.76L32.73 10.76L32.73 10.76Q32.23 11.10 31.47 11.53L31.47 11.53L31.47 11.53Q31.69 12.36 32.25 12.81L32.25 12.81L32.25 12.81Q32.80 13.25 33.67 13.25L33.67 13.25L33.67 13.25Q34.41 13.25 35.19 12.82ZM33.13 10.08L33.13 10.08L33.13 10.08Q33.31 9.78 33.31 9.50L33.31 9.50L33.31 9.50Q33.31 9.22 33.25 9.03L33.25 9.03L33.25 9.03Q33.19 8.83 33.07 8.68L33.07 8.68L33.07 8.68Q32.81 8.34 32.38 8.34L32.38 8.34L32.38 8.34Q31.34 8.34 31.34 10.46L31.34 10.46L31.34 10.46Q31.34 10.83 31.40 11.20L31.40 11.20L31.40 11.20Q32.61 10.87 33.13 10.08Z"></path></g><!----><!----></svg>