<svg data-v-423bf9ae="" xmlns="http://www.w3.org/2000/svg" viewBox="0 0 315 90" class="iconLeftSlogan"><!----><!----><!----><g data-v-423bf9ae="" id="da2da522-35c5-457c-9cac-706f82bb7612" fill="#FFFFFF" transform="matrix(5.016722792052415,0,0,5.016722792052415,138.23203076873844,-12.441472143139222)"><path d="M6.04 8.61L6.04 8.61L6.04 8.61Q7.55 7.44 8.35 7.44L8.35 7.44L8.35 7.44Q8.88 7.44 9.19 7.89L9.19 7.89L9.19 7.89Q9.45 8.26 9.45 8.83L9.45 8.83L9.45 12.09L9.45 12.09Q9.45 12.71 9.53 12.90L9.53 12.90L9.53 12.90Q9.69 13.26 10.23 13.26L10.23 13.26L10.23 13.26Q10.50 13.26 10.75 13.16L10.75 13.16L10.75 13.16Q10.14 13.69 9.91 13.84L9.91 13.84L9.91 13.84Q9.37 14.18 8.97 14.18L8.97 14.18L8.97 14.18Q8.57 14.18 8.40 14.04L8.40 14.04L8.40 14.04Q8.24 13.90 8.17 13.69L8.17 13.69L8.17 13.69Q8.09 13.45 8.09 12.70L8.09 12.70L8.09 10.12L8.09 10.12Q8.09 9.37 7.95 9.05L7.95 9.05L7.95 9.05Q7.81 8.72 7.61 8.56L7.61 8.56L7.61 8.56Q7.40 8.39 7.13 8.39L7.13 8.39L7.13 8.39Q6.85 8.39 6.70 8.48L6.70 8.48L6.70 8.48Q6.55 8.56 6.44 8.69L6.44 8.69L6.44 8.69Q6.03 9.17 6.03 10.26L6.03 10.26L6.03 12.20L6.03 12.20Q6.03 12.71 6.14 12.90L6.14 12.90L6.14 12.90Q6.34 13.26 6.82 13.26L6.82 13.26L6.82 13.26Q7.10 13.26 7.34 13.16L7.34 13.16L7.34 13.16Q6.73 13.69 6.50 13.84L6.50 13.84L6.50 13.84Q5.97 14.18 5.57 14.18L5.57 14.18L5.57 14.18Q5.17 14.18 5.00 14.04L5.00 14.04L5.00 14.04Q4.83 13.90 4.76 13.69L4.76 13.69L4.76 13.69Q4.69 13.45 4.69 12.70L4.69 12.70L4.69 10.12L4.69 10.12Q4.69 9.37 4.55 9.05L4.55 9.05L4.55 9.05Q4.41 8.72 4.20 8.56L4.20 8.56L4.20 8.56Q4.00 8.39 3.71 8.39L3.71 8.39L3.71 8.39Q3.42 8.39 3.27 8.50L3.27 8.50L3.27 8.50Q3.11 8.61 3.00 8.79L3.00 8.79L3.00 8.79Q2.88 8.98 2.82 9.20L2.82 9.20L2.82 9.20Q2.75 9.43 2.71 9.67L2.71 9.67L2.71 9.67Q2.65 10.08 2.65 10.53L2.65 10.53L2.65 12.64L2.65 12.64Q2.65 13.08 2.91 13.23L2.91 13.23L2.91 13.23Q3.01 13.30 3.15 13.30L3.15 13.30L3.15 13.30Q3.29 13.30 3.45 13.23L3.45 13.23L3.45 13.23Q2.67 13.90 2.34 14.06L2.34 14.06L2.34 14.06Q2.02 14.22 1.83 14.22L1.83 14.22L1.83 14.22Q1.31 14.22 1.31 13.62L1.31 13.62L1.31 9.68L1.31 9.68Q1.31 9.44 1.32 9.20L1.32 9.20L1.32 9.20Q1.33 8.96 1.27 8.76L1.27 8.76L1.27 8.76Q1.14 8.33 0.53 8.33L0.53 8.33L0.53 8.33Q0.23 8.33-0.06 8.44L-0.06 8.44L-0.06 8.44Q0.12 8.38 0.40 8.12L0.40 8.12L0.40 8.12Q0.94 7.63 1.16 7.55L1.16 7.55L1.16 7.55Q1.59 7.39 1.89 7.39L1.89 7.39L1.89 7.39Q2.19 7.39 2.34 7.50L2.34 7.50L2.34 7.50Q2.50 7.61 2.56 7.78L2.56 7.78L2.56 7.78Q2.65 7.99 2.65 8.60L2.65 8.60L2.65 8.60Q3.53 7.90 4.37 7.57L4.37 7.57L4.37 7.57Q4.68 7.44 4.94 7.44L4.94 7.44L4.94 7.44Q5.19 7.44 5.38 7.54L5.38 7.54L5.38 7.54Q5.58 7.64 5.71 7.80L5.71 7.80L5.71 7.80Q6.00 8.13 6.04 8.61ZM17.00 8.18L17.00 8.18L17.00 8.18Q17.35 8.57 17.54 9.08L17.54 9.08L17.54 9.08Q17.74 9.59 17.74 10.10L17.74 10.10L17.74 10.10Q17.74 10.62 17.59 11.10L17.59 11.10L17.59 11.10Q17.44 11.59 17.17 12.04L17.17 12.04L17.17 12.04Q16.90 12.50 16.53 12.89L16.53 12.89L16.53 12.89Q16.17 13.28 15.73 13.58L15.73 13.58L15.73 13.58Q14.80 14.20 13.85 14.20L13.85 14.20L13.85 14.20Q12.74 14.20 11.96 13.33L11.96 13.33L11.96 13.33Q11.20 12.50 11.20 11.38L11.20 11.38L11.20 11.38Q11.20 10.42 11.78 9.45L11.78 9.45L11.78 9.45Q12.65 7.99 14.14 7.48L14.14 7.48L14.14 7.48Q14.62 7.31 15.16 7.31L15.16 7.31L15.16 7.31Q15.69 7.31 16.17 7.54L16.17 7.54L16.17 7.54Q16.65 7.78 17.00 8.18ZM13.77 8.22L13.77 8.22L13.77 8.22Q13.08 8.22 12.77 8.89L12.77 8.89L12.77 8.89Q12.52 9.41 12.52 10.06L12.52 10.06L12.52 10.06Q12.52 10.72 12.70 11.28L12.70 11.28L12.70 11.28Q12.87 11.85 13.21 12.29L13.21 12.29L13.21 12.29Q13.97 13.29 15.17 13.29L15.17 13.29L15.17 13.29Q15.87 13.29 16.18 12.59L16.18 12.59L16.18 12.59Q16.41 12.07 16.41 11.40L16.41 11.40L16.41 11.40Q16.41 10.08 15.67 9.15L15.67 9.15L15.67 9.15Q14.94 8.22 13.77 8.22ZM25.18 8.11L25.18 8.11L25.18 8.11Q25.18 9.62 23.02 12.82L23.02 12.82L23.02 12.82Q22.90 13.00 22.78 13.19L22.78 13.19L22.78 13.19Q22.66 13.38 22.57 13.49L22.57 13.49L22.57 13.49Q22.48 13.60 22.37 13.68L22.37 13.68L22.37 13.68Q22.26 13.75 22.11 13.85L22.11 13.85L22.11 13.85Q21.97 13.94 21.82 14.03L21.82 14.03L21.82 14.03Q21.66 14.12 21.53 14.21L21.53 14.21L21.53 14.21Q21.22 14.42 21.21 14.44L21.21 14.44L21.21 14.44Q20.93 13.30 20.63 12.16L20.63 12.16L20.63 12.16Q20.33 11.03 20.07 10.39L20.07 10.39L20.07 10.39Q19.81 9.74 19.70 9.48L19.70 9.48L19.70 9.48Q19.60 9.22 19.45 8.98L19.45 8.98L19.45 8.98Q19.10 8.41 18.66 8.41L18.66 8.41L18.66 8.41Q18.42 8.41 18.11 8.59L18.11 8.59L18.11 8.59Q19.07 7.46 20.04 7.46L20.04 7.46L20.04 7.46Q20.76 7.46 21.58 10.01L21.58 10.01L21.58 10.01Q21.92 11.07 22.10 11.78L22.10 11.78L22.10 11.78Q22.29 12.49 22.35 12.76L22.35 12.76L22.35 12.76Q23.32 11.23 23.71 9.94L23.71 9.94L23.71 9.94Q23.86 9.44 23.86 9.02L23.86 9.02L23.86 9.02Q23.86 8.39 23.38 8.39L23.38 8.39L23.38 8.39Q23.21 8.39 22.98 8.48L22.98 8.48L22.98 8.48Q23.21 8.39 23.39 8.22L23.39 8.22L23.39 8.22Q23.56 8.05 23.74 7.89L23.74 7.89L23.74 7.89Q24.19 7.47 24.69 7.47L24.69 7.47L24.69 7.47Q25.18 7.47 25.18 8.11ZM26.76 3.41L28.08 2.48L28.12 3.26L28.12 3.62L28.12 3.62Q28.12 3.94 28.04 4.02L28.04 4.02L28.04 4.02Q27.96 4.09 27.86 4.16L27.86 4.16L27.86 4.16Q27.48 4.43 26.76 4.89L26.76 4.89L26.76 4.89Q26.79 4.21 26.79 4.19L26.79 4.19L26.79 4.19Q26.79 4.16 26.76 3.41L26.76 3.41ZM29.51 13.24L29.51 13.24L29.51 13.24Q29.31 13.41 29.11 13.58L29.11 13.58L29.11 13.58Q28.92 13.75 28.70 13.89L28.70 13.89L28.70 13.89Q28.21 14.21 27.76 14.21L27.76 14.21L27.76 14.21Q27.34 14.21 27.17 14.08L27.17 14.08L27.17 14.08Q26.82 13.82 26.82 13.13L26.82 13.13L26.82 9.88L26.82 9.88Q26.82 9.15 26.55 8.93L26.55 8.93L26.55 8.93Q26.43 8.83 26.28 8.83L26.28 8.83L26.28 8.83Q26.14 8.83 26.04 8.84L26.04 8.84L26.04 8.84Q25.94 8.86 25.84 8.88L25.84 8.88L25.84 8.88Q25.74 8.90 25.63 8.92L25.63 8.92L25.63 8.92Q25.97 8.65 26.27 8.44L26.27 8.44L26.27 8.44Q26.56 8.23 26.78 8.09L26.78 8.09L26.78 8.09Q26.99 7.94 27.36 7.68L27.36 7.68L27.36 7.68Q27.74 7.42 28.14 7.21L28.14 7.21L28.14 12.03L28.14 12.03Q28.14 12.73 28.23 12.91L28.23 12.91L28.23 12.91Q28.42 13.29 29.08 13.29L29.08 13.29L29.08 13.29Q29.26 13.29 29.51 13.24ZM35.19 12.82L35.19 12.82L35.19 12.82Q34.25 13.86 32.87 14.12L32.87 14.12L32.87 14.12Q32.55 14.18 32.07 14.18L32.07 14.18L32.07 14.18Q31.60 14.18 31.19 13.91L31.19 13.91L31.19 13.91Q30.77 13.65 30.50 13.23L30.50 13.23L30.50 13.23Q30.00 12.43 30.00 11.27L30.00 11.27L30.00 11.27Q30.00 10.50 30.58 9.57L30.58 9.57L30.58 9.57Q31.16 8.65 31.99 8.04L31.99 8.04L31.99 8.04Q32.87 7.38 33.67 7.38L33.67 7.38L33.67 7.38Q34.08 7.38 34.36 7.68L34.36 7.68L34.36 7.68Q34.62 7.98 34.62 8.35L34.62 8.35L34.62 8.35Q34.62 8.73 34.45 9.05L34.45 9.05L34.45 9.05Q34.29 9.37 34.03 9.67L34.03 9.67L34.03 9.67Q33.76 9.97 33.42 10.24L33.42 10.24L33.42 10.24Q33.09 10.52 32.73 10.76L32.73 10.76L32.73 10.76Q32.23 11.10 31.47 11.53L31.47 11.53L31.47 11.53Q31.69 12.36 32.25 12.81L32.25 12.81L32.25 12.81Q32.80 13.25 33.67 13.25L33.67 13.25L33.67 13.25Q34.41 13.25 35.19 12.82ZM33.13 10.08L33.13 10.08L33.13 10.08Q33.31 9.78 33.31 9.50L33.31 9.50L33.31 9.50Q33.31 9.22 33.25 9.03L33.25 9.03L33.25 9.03Q33.19 8.83 33.07 8.68L33.07 8.68L33.07 8.68Q32.81 8.34 32.38 8.34L32.38 8.34L32.38 8.34Q31.34 8.34 31.34 10.46L31.34 10.46L31.34 10.46Q31.34 10.83 31.40 11.20L31.40 11.20L31.40 11.20Q32.61 10.87 33.13 10.08Z"></path></g><!----><g data-v-423bf9ae="" id="2c242d62-6af5-44e4-8ac5-cadf0970f893" transform="matrix(1.5517241379310345,0,0,1.5517241379310345,-18.58620584422144,-32.58620689655173)" stroke="none" fill="#E96D77"><path style="text-indent:0;text-transform:none;block-progression:tb" d="M15 21c-1.759 0-3.002 1.603-3 3v52c0 1.57 1.43 3 3 3h70c1.57 0 3-1.43 3-3V24c0-1.57-1.43-3-3-3zm3 6h64v46H18zm23.531 8.344c-.89.53-1.463 1.59-1.468 2.656v24c.01 1.377.761 2.255 1.593 2.719a2.875 2.875 0 0 0 2.813-.094l20-12c.873-.539 1.469-1.57 1.469-2.625s-.596-2.086-1.47-2.625l-20-12c-1.026-.558-2.372-.435-2.937-.031zm4.407 7.906L57.156 50l-11.218 6.75z" overflow="visible" color="#000"></path></g><!----><g data-v-423bf9ae="" id="6bff76c1-c279-489c-969b-69a15386ff71" fill="#FFFFFF" transform="matrix(1.7946413732055262,0,0,1.7946413732055262,137.12343976309273,54.49045215803986)"><path d="M0.45 12.43C0.45 12.59 0.48 12.67 0.67 12.67C1.09 12.67 1.48 12.64 1.83 12.64C2.24 12.64 3.08 12.67 3.35 12.67C3.54 12.67 3.54 12.60 3.54 12.43C3.54 12.26 3.54 12.21 3.37 12.21L2.42 12.21C2.34 12.21 2.30 11.17 2.30 10.23L2.30 7.91C2.30 7.80 2.35 7.78 2.56 7.78L4.13 7.78C4.21 7.78 4.26 7.48 4.26 7.45C4.26 7.35 4.19 7.35 4.12 7.35L2.56 7.35C2.30 7.35 2.24 7.35 2.24 7.15C2.25 6.55 2.27 6.31 2.27 5.71C2.27 4.83 2.31 3.46 3.05 3.46C3.53 3.46 3.58 3.93 3.67 4.58C3.68 4.72 3.77 4.75 3.89 4.75C4.10 4.75 4.61 4.40 4.61 4.05C4.61 3.44 3.96 3.07 3.40 3.07C1.74 3.07 1.18 4.40 1.18 5.87C1.18 6.61 1.20 6.54 1.20 7.22C1.20 7.35 1.19 7.35 1.11 7.35L0.69 7.35C0.56 7.35 0.53 7.39 0.53 7.57C0.53 7.76 0.56 7.80 0.73 7.80L1.19 7.80C1.22 7.80 1.22 9.02 1.22 9.35L1.22 10.19C1.22 10.35 1.23 10.88 1.23 11.37C1.23 11.70 1.23 12.21 1.18 12.21L0.66 12.21C0.49 12.21 0.45 12.29 0.45 12.43ZM11.66 10.04C11.66 11.58 12.82 12.85 14.35 12.85C16.11 12.85 17.15 11.58 17.15 9.84C17.15 8.29 16.13 7.01 14.57 7.01C12.82 7.01 11.66 8.37 11.66 10.04ZM12.74 10.23C12.74 8.69 13.13 7.46 14.41 7.46C15.54 7.46 16.06 8.74 16.06 9.74C16.06 10.92 15.82 12.40 14.35 12.40C13.30 12.40 12.74 11.27 12.74 10.23ZM24.82 7.71C24.82 7.76 24.85 7.76 24.92 7.76C24.96 7.76 25.68 7.73 25.76 7.73C25.84 7.73 25.87 9.20 25.87 10.33C25.87 11.24 25.86 12.21 25.76 12.21L25.14 12.21C24.98 12.21 24.98 12.29 24.98 12.43C24.98 12.59 24.99 12.67 25.16 12.67C25.58 12.67 26.05 12.64 26.40 12.64C26.81 12.64 27.66 12.67 27.93 12.67C28.11 12.67 28.11 12.56 28.11 12.43C28.11 12.29 28.10 12.21 27.93 12.21L27.01 12.21C26.91 12.21 26.88 11.47 26.88 10.68C26.88 9.46 26.99 7.87 27.64 7.87C27.87 7.87 28.15 8.32 28.46 8.32C28.73 8.32 29.04 7.85 29.04 7.69C29.04 7.49 28.64 7.04 28.20 7.04C27.75 7.04 27.17 7.49 26.85 8.26C26.78 8.40 26.80 8.46 26.80 8.23C26.80 7.98 26.81 7.64 26.81 7.42C26.81 7.29 26.81 7.29 26.64 7.29C26.54 7.29 25.65 7.32 25.13 7.34C24.93 7.34 24.91 7.34 24.88 7.45C24.86 7.52 24.82 7.66 24.82 7.71ZM46.24 7.45C46.24 7.59 46.24 7.67 46.42 7.67L46.70 7.67C46.80 7.67 46.80 7.69 46.87 7.85C47.45 9.25 49.06 12.99 49.06 13.20C49.06 13.34 48.68 14.29 48.44 14.88C48.29 15.26 47.59 15.43 47.21 15.57C47.08 15.61 46.90 15.69 46.80 15.83C46.66 16.03 46.52 16.30 46.52 16.45C46.52 16.59 46.59 16.77 46.82 16.77C46.93 16.77 47.35 16.58 47.70 16.41C48.05 16.24 48.08 16.17 48.29 15.90C48.89 15.16 48.94 14.92 49.20 14.21C49.46 13.44 49.71 12.67 49.76 12.57C49.87 12.29 51.39 8.40 51.62 7.78C51.66 7.67 51.70 7.67 51.79 7.67L52.00 7.67C52.16 7.67 52.16 7.59 52.16 7.45C52.16 7.28 52.14 7.21 51.98 7.21C51.86 7.21 51.48 7.24 51.17 7.24C50.89 7.24 50.34 7.21 50.23 7.21C50.05 7.21 50.04 7.31 50.04 7.45C50.04 7.59 50.04 7.67 50.22 7.67L50.71 7.67C50.90 7.67 50.96 7.69 50.96 7.76C50.96 7.78 50.96 7.81 50.95 7.87C50.81 8.40 50.16 10.26 49.83 11.24C49.73 11.51 49.66 11.69 49.63 11.69C49.59 11.69 49.52 11.49 49.41 11.24C48.97 10.18 48.16 7.99 48.16 7.77C48.16 7.70 48.29 7.67 48.48 7.67L48.75 7.67C48.92 7.67 48.96 7.59 48.96 7.45C48.96 7.29 48.93 7.21 48.73 7.21C48.52 7.21 48.03 7.24 47.50 7.24C47.10 7.24 46.65 7.21 46.42 7.21C46.26 7.21 46.24 7.32 46.24 7.45ZM59.57 10.04C59.57 11.58 60.73 12.85 62.26 12.85C64.02 12.85 65.06 11.58 65.06 9.84C65.06 8.29 64.04 7.01 62.48 7.01C60.73 7.01 59.57 8.37 59.57 10.04ZM60.65 10.23C60.65 8.69 61.04 7.46 62.31 7.46C63.45 7.46 63.97 8.74 63.97 9.74C63.97 10.92 63.73 12.40 62.26 12.40C61.21 12.40 60.65 11.27 60.65 10.23ZM72.59 7.60C72.59 7.66 72.63 7.67 72.70 7.67C72.76 7.67 73.35 7.66 73.39 7.66C73.49 7.66 73.51 8.05 73.51 8.69L73.51 10.89C73.51 11.83 73.72 12.80 75.08 12.80C76.12 12.80 77.31 12.15 77.34 12.15C77.38 12.15 77.35 12.87 77.43 12.87C77.49 12.87 78.62 12.70 79.10 12.63C79.28 12.60 79.28 12.59 79.28 12.38C79.28 12.29 79.28 12.19 79.20 12.19C79.16 12.19 78.61 12.28 78.58 12.28C78.40 12.28 78.36 12.19 78.36 11.49C78.36 10.63 78.37 7.28 78.37 7.28C78.37 7.20 78.39 7.15 78.23 7.15C78.16 7.15 77.32 7.20 76.61 7.22C76.48 7.22 76.44 7.25 76.43 7.35C76.41 7.39 76.40 7.56 76.40 7.60C76.40 7.64 76.45 7.64 76.51 7.64C76.55 7.64 77.10 7.62 77.21 7.62C77.29 7.62 77.32 9.87 77.32 10.18L77.32 11.83C77.32 11.93 76.57 12.01 76.09 12.01C75.26 12.01 74.58 11.86 74.58 11.12L74.58 7.31C74.58 7.22 74.58 7.18 74.49 7.18C74.42 7.18 73.21 7.22 72.90 7.24C72.73 7.25 72.69 7.24 72.65 7.36C72.62 7.43 72.59 7.55 72.59 7.60Z"></path></g></svg>